<?xml version="1.0" encoding="UTF-8" standalone="no"?>
<!-- Created with Inkscape (http://www.inkscape.org/) -->

<svg
   width="192"
   height="192.00002"
   viewBox="0 0 38.4 38.400003"
   version="1.1"
   id="svg239"
   inkscape:version="1.2.1 (9c6d41e410, 2022-07-14, custom)"
   xml:space="preserve"
   inkscape:export-filename="apple-touch-icon.png"
   inkscape:export-xdpi="96"
   inkscape:export-ydpi="96"
   sodipodi:docname="favicon.svg"
   xmlns:inkscape="http://www.inkscape.org/namespaces/inkscape"
   xmlns:sodipodi="http://sodipodi.sourceforge.net/DTD/sodipodi-0.dtd"
   xmlns="http://www.w3.org/2000/svg"
   xmlns:svg="http://www.w3.org/2000/svg"><sodipodi:namedview
     id="namedview241"
     pagecolor="#505050"
     bordercolor="#eeeeee"
     borderopacity="1"
     inkscape:showpageshadow="0"
     inkscape:pageopacity="0"
     inkscape:pagecheckerboard="0"
     inkscape:deskcolor="#505050"
     inkscape:document-units="px"
     showgrid="false"
     inkscape:zoom="1"
     inkscape:cx="-48"
     inkscape:cy="-1"
     inkscape:window-width="1920"
     inkscape:window-height="1171"
     inkscape:window-x="0"
     inkscape:window-y="0"
     inkscape:window-maximized="1"
     inkscape:current-layer="layer1" /><defs
     id="defs236" /><g
     inkscape:label="Layer 1"
     inkscape:groupmode="layer"
     id="layer1"
     transform="translate(-178.23396,-2.2339616)"><g
       id="g343"><path
         style="fill:#fefefe;stroke-width:0.064"
         d="m 183.03396,21.433963 v -9.600001 h 2.4 2.4 v -1.216 -1.216 h 2.4 2.4 v -1.1840001 -1.184 h 1.184 1.184 V 5.8179618 4.6019617 h 1.216 1.216 v 1.2160001 1.2160001 h -1.216 -1.216 v 1.184 1.1840001 h -1.184 -1.184 v 1.216 1.216 h -2.4 -2.4 v 1.184 1.184 h -1.216 -1.216 v 8.416001 8.416 h -1.184 -1.184 z"
         id="path373" /><path
         style="fill:#fec4c4;stroke-width:0.064"
         d="m 185.40196,15.417962 v -1.216 h 1.216 1.216 v -1.184 -1.184 h 2.4 2.4 v -1.216 -1.216 h 1.184 1.184 v -1.1840001 -1.184 h 1.216 1.216 v 4.8000001 4.8 h -6.016 -6.016 z"
         id="path371" /><path
         style="fill:#fe14f6;stroke-width:0.064"
         d="M 178.23396,21.433963 V 2.2339616 h 4.8 4.8 v 1.1840001 1.184 h -1.216 -1.216 V 7.0019618 9.401962 h -1.184 -1.184 v 1.216 1.216 h -1.216 -1.216 v 9.600001 9.6 h 1.216 1.216 v 1.184 1.184 h 1.184 1.184 v 1.216 1.216 h 1.216 1.216 v 2.4 2.400001 h -4.8 -4.8 z"
         id="path369" /><path
         style="fill:#a800fe;stroke-width:0.064"
         d="m 187.83396,38.233963 v -2.4 h -1.216 -1.216 v -1.216 -1.216 h 1.216 1.216 v 1.216 1.216 h 2.4 2.4 v 1.184 1.184 h 1.184 1.184 v 1.216001 1.216 h -3.584 -3.584 z m -2.432,-31.2320012 V 4.6019617 h 1.216 1.216 v -1.184 -1.1840001 h 3.584 3.584 v 1.1840001 1.184 h -1.184 -1.184 v 1.2160001 1.2160001 h -2.4 -2.4 v 1.184 1.1840001 h -1.216 -1.216 z"
         id="path367" /><path
         style="fill:#dd3e3e;stroke-width:0.064"
         d="m 185.40196,22.617963 v -5.984001 h 3.616 3.616 v 1.184 1.184 h -1.216 -1.216 v 3.616001 3.616 h -1.184 -1.184 v 1.184 1.184 h -1.216 -1.216 z"
         id="path365" /><path
         style="fill:#f42b2b;stroke-width:0.064"
         d="m 202.23396,17.817962 v -1.184 h -2.4 -2.4 v -6.016 -6.0160003 h 1.184 1.184 v 1.2160001 1.2160001 h 1.216 1.216 v 1.184 1.1840001 h 2.4 2.4 v 1.216 1.216 h 1.184 1.184 v 1.184 1.184 h -1.184 -1.184 v 1.216 1.216 h -1.216 -1.216 v 1.184 1.184 h -1.184 -1.184 z"
         id="path363" /><path
         style="fill:#8000c2;stroke-width:0.064"
         d="m 199.80196,39.417964 v -1.216001 h 1.216 1.216 v -1.184 -1.184 h 2.4 2.4 v -1.216 -1.216 h 1.184 1.184 v 1.216 1.216 h 1.216 1.216 v 2.4 2.400001 h -6.016 -6.016 z m 7.232,-31.2000021 v -1.184 h -2.4 -2.4 V 5.8179618 4.6019617 h -1.216 -1.216 v -1.184 -1.1840001 h 6.016 6.016 V 5.8179618 9.401962 h -2.4 -2.4 z"
         id="path361" /><path
         style="fill:#fe0000;stroke-width:0.064"
         d="m 192.63396,25.017963 v -1.216 h -1.216 -1.216 v -2.4 -2.400001 h 1.216 1.216 v -1.184 -1.184 h 4.8 4.8 v 1.184 1.184 h 1.184 1.184 v 2.400001 2.4 h -1.184 -1.184 v 1.216 1.216 h -4.8 -4.8 z"
         id="path359" /><path
         style="fill:#2d00c2;stroke-width:0.064"
         d="m 211.83396,38.233963 v -2.4 h -1.216 -1.216 v -1.216 -1.216 h 1.216 1.216 v -1.184 -1.184 h 1.184 1.184 v -9.6 -9.600001 h -1.184 -1.184 V 7.0339619 2.2339616 h 2.4 2.4 V 21.433963 40.633964 h -2.4 -2.4 z"
         id="path357" /><path
         style="fill:#c60a0a;stroke-width:0.064"
         d="m 195.00196,37.017963 v -1.184 h -1.184 -1.184 v -1.216 -1.216 h -2.4 -2.4 v -1.184 -1.184 h -1.216 -1.216 v -1.216 -1.216 h 1.216 1.216 v -1.184 -1.184 h 1.184 1.184 v -1.216 -1.216 h 1.216 1.216 v 1.216 1.216 h 2.4 2.4 v 5.984 5.984 h -1.216 -1.216 z"
         id="path355" /><path
         style="fill:#7b0404;stroke-width:0.064"
         d="m 202.23396,25.017963 v -1.216 h 1.184 1.184 v -3.584 -3.584001 h 1.216 1.216 v -1.216 -1.216 h 1.184 1.184 v 6.016001 6.016 h -3.584 -3.584 z"
         id="path353" /><path
         style="fill:#710000;stroke-width:0.064"
         d="m 197.43396,31.033963 v -4.8 h 5.984 5.984 v 1.184 1.184 h -1.184 -1.184 v 1.216 1.216 h -2.4 -2.4 v 1.184 1.184 h -1.216 -1.216 v 1.216 1.216 h -1.184 -1.184 z"
         id="path351" /><path
         style="fill:#550303;stroke-width:0.064"
         d="m 197.43396,37.017963 v -1.184 h 1.184 1.184 v -1.216 -1.216 h 1.216 1.216 v -1.184 -1.184 h 2.4 2.4 v -1.216 -1.216 h 1.184 1.184 v -8.384 -8.384001 h 1.216 1.216 v 9.600001 9.6 h -2.4 -2.4 v 1.184 1.184 h -2.4 -2.4 v 1.216 1.216 h -1.216 -1.216 v 1.184 1.184 h -1.184 -1.184 z"
         id="path349" /><path
         style="fill:#430000;stroke-width:0.064"
         d="m 192.63396,37.017963 v -1.184 h -2.4 -2.4 v -1.216 -1.216 h -2.4 -2.4 v -1.184 -1.184 h -1.216 -1.216 v -9.6 -9.600001 h 1.216 1.216 v -1.216 -1.216 h 2.4 2.4 v -1.1840001 -1.184 h 2.4 2.4 V 5.8179618 4.6019617 h 1.184 1.184 v -1.184 -1.1840001 h 2.4 2.4 v 1.1840001 1.184 h -2.4 -2.4 v 1.2160001 1.2160001 h -1.184 -1.184 v 1.184 1.1840001 h -2.4 -2.4 v 1.216 1.216 h -2.4 -2.4 v 9.600001 9.6 h 2.4 2.4 v 1.184 1.184 h 2.4 2.4 v 1.216 1.216 h 1.184 1.184 v 1.184 1.184 h -1.184 -1.184 z"
         id="path347" /><path
         style="fill:#000000;stroke-width:0.064"
         d="m 195.00196,39.417964 v -1.216001 h 2.4 2.4 v -1.184 -1.184 h 1.216 1.216 v -1.216 -1.216 h 2.4 2.4 v -1.184 -1.184 h 2.4 2.4 v -9.6 -9.600001 h -2.4 -2.4 v -1.216 -1.216 h -2.4 -2.4 v -1.1840001 -1.184 h -1.216 -1.216 V 5.8179618 4.6019617 h 1.216 1.216 v 1.2160001 1.2160001 h 2.4 2.4 v 1.184 1.1840001 h 2.4 2.4 v 1.216 1.216 h 1.184 1.184 v 9.600001 9.6 h -1.184 -1.184 v 1.184 1.184 h -2.4 -2.4 v 1.216 1.216 h -2.4 -2.4 v 1.184 1.184 h -1.216 -1.216 v 1.216001 1.216 h -2.4 -2.4 z"
         id="path345" /></g></g></svg>
